<?xml version="1.0" encoding="UTF-8"?>
<svg width="20px" height="20px" viewBox="0 0 20 20" version="1.1" xmlns="http://www.w3.org/2000/svg" xmlns:xlink="http://www.w3.org/1999/xlink">
    <g stroke="none" stroke-width="1" fill="none" fill-rule="evenodd">
        <g transform="translate(-1, -1)">
            <path d="M20.66,10.28 C20.66,9.63 20.66,9.24 20.58,8.81 L11.11,8.81 L11.11,12.09 L16.45,12.09 C16.24,13.11 15.59,13.91 14.52,14.43 L14.52,16.58 L17.74,16.58 C19.59,15.09 20.66,12.85 20.66,10.28 L20.66,10.28 Z" fill="#4285F4"></path>
            <path d="M11.11,20.66 C13.73,20.66 15.94,19.8 17.74,16.58 L14.52,14.43 C13.66,15.02 12.52,15.37 11.11,15.37 C8.36,15.37 6.07,13.71 5.35,11.39 L2.03,11.39 L2.03,13.61 C3.84,17.86 7.27,20.66 11.11,20.66 L11.11,20.66 Z" fill="#34A853"></path>
            <path d="M5.35,11.39 C5.1,10.86 4.97,10.27 4.97,9.66 C4.97,9.05 5.1,8.47 5.35,7.93 L5.35,5.71 L2.03,5.71 C1.31,7.04 0.89,8.58 0.89,10.27 C0.89,11.96 1.31,13.5 2.03,14.83 L5.35,11.39 L5.35,11.39 Z" fill="#FBBC05"></path>
            <path d="M11.11,4.37 C12.52,4.37 13.79,4.9 14.76,5.82 L17.61,2.97 C15.94,1.36 13.73,0.94 11.11,0.94 C7.27,0.94 3.84,3.16 2.03,7.41 L5.35,9.63 C6.07,7.31 8.36,4.37 11.11,4.37 L11.11,4.37 Z" fill="#EA4335"></path>
            <polygon points="1 1 21 1 21 21 1 21"></polygon>
        </g>
    </g>
</svg> 